<svg xmlns="http://www.w3.org/2000/svg" viewBox="0 0 318.6 318.6">
  <path d="m274.1 35.5-99.5 73.9L193 65.8z" fill="#e2761b" stroke="#e2761b" stroke-linecap="round" stroke-linejoin="round"/>
  <path d="m44.4 35.5 98.7 74.6-17.5-44.3zm193.9 171.3-26.5 40.6 56.7 15.6 16.3-55.3zm-204.4 0 16.2 55.3 56.7-15.6-26.5-40.6z" fill="#e4761b" stroke="#e4761b" stroke-linecap="round" stroke-linejoin="round"/>
  <path d="m103.6 138.2-15.8 23.9 56.3 2.5-2-60.5zm111.3 0-39-34.8-1.3 61.2 56.2-2.5zM106.8 247.4 140 226l-28.3-22zm71.7-21.4 33.1 21.4-4.8-43.4z" fill="#e4761b" stroke="#e4761b" stroke-linecap="round" stroke-linejoin="round"/>
  <path d="m211.8 247.4-33.1-21.4 2.6 28.7-.3 12.1zm-105 0 30.7 19.4-.2-12.1 2.5-28.7z" fill="#d7c1b3" stroke="#d7c1b3" stroke-linecap="round" stroke-linejoin="round"/>
  <path d="m138.8 193.5-27.4-8.3 19.4-8.9zm40.9 0 8.1-17.2 19.4 8.9z" fill="#233447" stroke="#233447" stroke-linecap="round" stroke-linejoin="round"/>
  <path d="m106.8 247.4 4.8-40.6-31.3.9zM207 206.8l4.8 40.6 26.5-39.7zm23.8-44.7-56.2 2.5 5.2 28.9 8.1-17.2 19.4 8.9zm-120.2 23.1 19.4-8.9 8.1 17.2 5.2-28.9-56.3-2.5z" fill="#cd6116" stroke="#cd6116" stroke-linecap="round" stroke-linejoin="round"/>
  <path d="m87.8 162.1 23.6 46-.8-22.9zm120.3 23.1-1 22.9 23.7-46zm-64-20.6-5.2 28.9 6.4 33.1 1.5-43.9zm30.5 0-2.7 18 1.2 43.9 6.5-33.1z" fill="#e4751f" stroke="#e4751f" stroke-linecap="round" stroke-linejoin="round"/>
  <path d="m179.8 193.5-6.5 33.1 4.6 3.3 28.3-22 1-22.9zm-69.2 0 .8 22.9 28.3 22 4.6-3.3-6.4-33.1z" fill="#f6851b" stroke="#f6851b" stroke-linecap="round" stroke-linejoin="round"/>
  <path d="m180.3 266.8.3-12.1-2.6-2.3h-37.7l-2.4 2.3.2 12.1-30.7-19.4 10.7 8.8 21.7 15.1h37.6l21.8-15.1 10.6-8.8z" fill="#c0ad9e" stroke="#c0ad9e" stroke-linecap="round" stroke-linejoin="round"/>
  <path d="m178.8 226-4.6-3.3h-30.1l-4.6 3.3-2.5 28.7 2.4-2.3h37.7l2.6 2.3z" fill="#161616" stroke="#161616" stroke-linecap="round" stroke-linejoin="round"/>
  <path d="m278.3 114.2 8.5-40.8-12.7-37.9-96.2 71.4 37 31.3 52.3 15.3 11.6-13.5-5-3.6 8-7.3-6.2-4.8 8-6.1zM31.8 73.4l8.5 40.8-5.4 4 8 6.1-6.1 4.8 8 7.3-5 3.6 11.5 13.5 52.3-15.3 37-31.3-96.2-71.4z" fill="#763d16" stroke="#763d16" stroke-linecap="round" stroke-linejoin="round"/>
  <path d="m267.2 153.5-52.3-15.3 15.9 23.9-23.7 46L239 208h36.2l-8-54.5zm-215.9 0 8 54.5H95.5L127.3 208l-23.6-46 15.8-23.9-52.2 15.4zm71.5-68.9 3.3 57.7 15.2-41.7zm49.6 16L188 84.6l3.4 57.7z" fill="#f6851b" stroke="#f6851b" stroke-linecap="round" stroke-linejoin="round"/>
  <path d="m142.9 141.7-15.8 23.9 28.3 22-1.5-45.9z" fill="#e4761b" stroke="#e4761b" stroke-linecap="round" stroke-linejoin="round"/>
  <path d="m175.6 141.7 11-1-.2 46L213 165.6zm-75.1-18.6 63.3 16.6-3.3-57.7zm33.1 94.3 30.7-19.4-26.5-20.5zM165 202.2l-2.7 34.8 6.2-44zm24.8-60.5-63.3 16.6 11 45.6z" fill="#e4761b" stroke="#e4761b" stroke-linecap="round" stroke-linejoin="round"/>
</svg>